<?xml version="1.0" encoding="UTF-8"?>
<svg width="151px" height="33px" viewBox="0 0 151 33" version="1.1" xmlns="http://www.w3.org/2000/svg" xmlns:xlink="http://www.w3.org/1999/xlink">
    <!-- Generator: Sketch 52.2 (67145) - http://www.bohemiancoding.com/sketch -->
    <title>Logo SVG</title>
    <desc>Created with Sketch.</desc>
    <g id="Page-1" stroke="none" stroke-width="1" fill="none" fill-rule="evenodd">
        <g id="Logo-SVG" fill="#D1D1D1">
            <g id="Group">
                <path d="M16.5281855,9.81181967 C15.9801927,9.27083607 15.3388545,8.8472459 14.5997782,8.52698361 C13.8628982,8.20888525 13.0787964,8.04929508 12.24912,8.04929508 C11.4210909,8.04929508 10.6369891,8.20888525 9.89736364,8.52698361 C9.16377818,8.8472459 8.52244,9.27083607 7.97444727,9.81181967 C7.42535636,10.3517213 6.99541818,10.9825082 6.68133818,11.7020164 C6.36506182,12.4182787 6.21076727,13.1864754 6.21076727,14.0033607 L6.21076727,23.3883443 C6.21076727,23.7664918 6.34145091,24.0835082 6.60666182,24.3426393 C6.87242182,24.6066393 7.19528727,24.7370164 7.57635636,24.7370164 C7.95577818,24.7370164 8.27644727,24.6071803 8.53397091,24.3426393 C8.79039636,24.0835082 8.91668727,23.7670328 8.91668727,23.3883443 L8.91668727,14.0033607 C8.91668727,13.563541 9.00564,13.1410328 9.17750545,12.7428689 C9.35321455,12.341459 9.58932364,11.9936066 9.88857818,11.7020164 C10.1911273,11.4071803 10.5408982,11.1745574 10.9461273,11.0014426 C11.34916,10.8304918 11.7878836,10.7433934 12.2502182,10.7433934 C12.7125527,10.7433934 13.1512764,10.8299508 13.5554073,11.0014426 C13.9628327,11.1745574 14.3191927,11.4071803 14.6266836,11.7020164 C14.9336255,11.9936066 15.1746764,12.341459 15.3443455,12.7428689 C15.5200545,13.1410328 15.6090073,13.564082 15.6090073,14.0033607 L15.6090073,23.3883443 C15.6090073,23.7664918 15.74628,24.0835082 16.0186291,24.3426393 C16.2920764,24.6066393 16.6116473,24.7370164 16.9762436,24.7370164 C17.3545673,24.7370164 17.6752364,24.6071803 17.9371527,24.3426393 C18.1891855,24.0835082 18.3176727,23.7670328 18.3176727,23.3883443 L18.3176727,14.0033607 C18.3176727,13.1864754 18.1567891,12.4182787 17.8328255,11.7020164 C17.5094109,10.9825082 17.0728836,10.3517213 16.5281855,9.81181967 Z" id="Path"></path>
                <path d="M31.9916836,9.81181967 C31.4436909,9.27083607 30.8012545,8.8472459 30.0621782,8.52698361 C29.3252982,8.20888525 28.5433927,8.04929508 27.7126182,8.04929508 C26.8834909,8.04929508 26.0977418,8.20888525 25.3630582,8.52698361 C24.6239818,8.8472459 23.9815455,9.27083607 23.4335527,9.81181967 C22.88556,10.3517213 22.45672,10.9825082 22.1409927,11.7020164 C21.8258145,12.4182787 21.6693236,13.1864754 21.6693236,14.0033607 L21.6693236,23.3883443 C21.6693236,23.7664918 21.7989091,24.0835082 22.0652182,24.3426393 C22.3320764,24.6066393 22.6538436,24.7370164 23.0376582,24.7370164 C23.41708,24.7370164 23.7350036,24.6071803 23.9930764,24.3426393 C24.2527964,24.0835082 24.3790873,23.7670328 24.3790873,23.3883443 L24.3790873,14.0033607 C24.3790873,13.563541 24.4658436,13.1410328 24.6388073,12.7428689 C24.8167127,12.341459 25.0495273,11.9936066 25.3487818,11.7020164 C25.6480364,11.4071803 25.9978073,11.1745574 26.4052327,11.0014426 C26.8126582,10.8304918 27.2513818,10.7433934 27.7126182,10.7433934 C28.1760509,10.7433934 28.6125782,10.8299508 29.0189055,11.0014426 C29.4241345,11.1745574 29.7815927,11.4071803 30.0868873,11.7020164 C30.3927309,11.9936066 30.63488,12.341459 30.8078436,12.7428689 C30.9813564,13.1410328 31.0686618,13.564082 31.0686618,14.0033607 L31.0686618,23.3883443 C31.0686618,23.7664918 31.2070327,24.0835082 31.4815782,24.3426393 C31.7539273,24.6066393 32.0734982,24.7370164 32.4391927,24.7370164 C32.8169673,24.7370164 33.1392836,24.6071803 33.3935127,24.3426393 C33.6521345,24.0835082 33.78172,23.7670328 33.78172,23.3883443 L33.78172,14.0033607 C33.78172,13.1864754 33.61864,12.4182787 33.2946764,11.7020164 C32.9729091,10.9825082 32.5363818,10.3517213 31.9916836,9.81181967 Z" id="Path"></path>
                <path d="M47.4046655,9.78855738 C46.8566727,9.24865574 46.2142364,8.82614754 45.4729636,8.51508197 C44.7393782,8.20563934 43.95308,8.04929508 43.1234036,8.04929508 C42.2975709,8.04929508 41.5101745,8.20563934 40.7727455,8.51508197 C40.0358655,8.82560656 39.3945273,9.24811475 38.8487309,9.78855738 C38.3018364,10.329541 37.8653091,10.9614098 37.5402473,11.6895738 C37.21848,12.4155738 37.0564982,13.1870164 37.0564982,14.0033607 L37.0564982,19.2925574 C37.0564982,20.1137705 37.21848,20.8819672 37.5402473,21.5971475 C37.8653091,22.3209836 38.3018364,22.9474426 38.8487309,23.4873443 C39.3945273,24.0261639 40.0358655,24.454082 40.7727455,24.7721803 C41.5107236,25.0891967 42.2975709,25.2509508 43.1234036,25.2509508 C43.9536291,25.2509508 44.7393782,25.0891967 45.4729636,24.7721803 C46.2142364,24.454082 46.8566727,24.0261639 47.4046655,23.4873443 C47.9493636,22.9474426 48.3836945,22.3209836 48.7087564,21.5971475 C49.0294255,20.8819672 49.1947018,20.1137705 49.1947018,19.2925574 L49.1947018,14.0033607 C49.1947018,13.1864754 49.0294255,12.4150328 48.7087564,11.6895738 C48.3836945,10.9614098 47.9493636,10.329541 47.4046655,9.78855738 Z M46.4552873,19.2925574 C46.4552873,19.735082 46.3685309,20.1581311 46.1955673,20.557377 C46.0220545,20.9577049 45.7848473,21.3066393 45.4866909,21.5971475 C45.1885345,21.8930656 44.8376655,22.1267705 44.4313382,22.3009672 C44.0217164,22.4681311 43.5873855,22.5546885 43.1228545,22.5546885 C42.6775418,22.5546885 42.2487018,22.4681311 41.8434727,22.3009672 C41.4382436,22.1267705 41.0796873,21.8930656 40.7721964,21.5971475 C40.4685491,21.3066393 40.2264,20.9577049 40.0534364,20.557377 C39.8788255,20.1581311 39.7898727,19.735082 39.7898727,19.2925574 L39.7898727,14.0033607 C39.7898727,13.563541 39.8788255,13.1410328 40.0534364,12.7428689 C40.2258509,12.341459 40.46196,11.9936066 40.7623127,11.7020164 C41.0604691,11.4071803 41.4124364,11.1745574 41.8187636,11.0014426 C42.2261891,10.8304918 42.6594218,10.7433934 43.1228545,10.7433934 C43.5720109,10.7433934 44.0003018,10.8299508 44.4022364,11.0014426 C44.81076,11.1745574 45.1682182,11.4071803 45.4724145,11.7020164 C45.7815527,11.9936066 46.0215055,12.341459 46.1950182,12.7428689 C46.3674327,13.1410328 46.4547382,13.564082 46.4547382,14.0033607 L46.4547382,19.2925574 L46.4552873,19.2925574 Z" id="Shape" fill-rule="nonzero"></path>
                <path d="M65.7261818,10.0081967 C65.7421055,9.92055738 65.7508909,9.83291803 65.7508909,9.75339344 C65.7508909,9.40986885 65.63064,9.0982623 65.3917855,8.82019672 C65.1496364,8.54321311 64.82128,8.40309836 64.4094618,8.40309836 C63.7972255,8.40309836 63.3821127,8.67467213 63.1641236,9.21240984 C62.3855127,10.9917049 61.6058036,12.7829016 60.8282909,14.5778852 C60.0485818,16.3761148 59.2595382,18.1727213 58.4633564,19.9687869 L53.7872982,9.21240984 C53.65332,8.93434426 53.4814545,8.73147541 53.2651127,8.60272131 C53.0465745,8.46963934 52.8071709,8.40309836 52.5452545,8.40309836 C52.1290436,8.40309836 51.8012364,8.5437541 51.5607345,8.82019672 C51.3196836,9.0982623 51.2027273,9.40986885 51.2027273,9.75339344 C51.2027273,9.98168852 51.2351236,10.1537213 51.3015636,10.264623 L57.2191164,23.890918 C57.4837782,24.4308197 57.8999891,24.6969836 58.4633564,24.6969836 C58.6802473,24.6969836 58.8526618,24.6661475 58.9855418,24.6006885 C59.3512364,24.4400164 59.5917382,24.2003607 59.7070473,23.890377 L65.6267964,10.264082 C65.67896,10.1845574 65.70916,10.0958361 65.7261818,10.0081967 Z" id="Path"></path>
                <path d="M79.9092,22.9187705 L73.9916473,9.27137705 C73.86316,8.97978689 73.6473673,8.73580328 73.2997927,8.57513115 C73.2201745,8.52319672 73.0993745,8.50534426 73.0082255,8.48857377 C72.9181745,8.47396721 72.8336145,8.46422951 72.7474073,8.46422951 C72.1845891,8.46422951 71.7716727,8.73796721 71.5053636,9.27137705 L65.5867127,22.9187705 C65.5515709,22.9885574 65.5257636,23.067541 65.5103891,23.166 C65.4922691,23.2677049 65.4867782,23.3553443 65.4867782,23.4343279 C65.4867782,23.7470164 65.6070291,24.0472623 65.8458836,24.3312787 C66.0880327,24.6152951 66.4141927,24.7570328 66.8282073,24.7570328 C67.0939673,24.7570328 67.3333709,24.6959016 67.5508109,24.5649836 C67.7644073,24.4340656 67.93792,24.2268689 68.0697018,23.9498852 C68.3206364,23.3445246 68.5748655,22.7570164 68.8290945,22.1716721 C69.0877164,21.5960656 69.3468873,21.0031475 69.6142945,20.3977869 L75.9041309,20.3977869 L77.4492727,23.9498852 C77.6639673,24.4908689 78.0796291,24.7570328 78.6913164,24.7570328 C79.1064291,24.7570328 79.4353345,24.6152951 79.6758364,24.3312787 C79.9141418,24.0472623 80.0349418,23.7470164 80.0349418,23.4343279 C80.03604,23.2909672 79.9959564,23.1183934 79.9092,22.9187705 Z M70.7333418,17.7026066 C70.9178364,17.2811803 71.0924473,16.8797705 71.2588218,16.5032459 C71.4240982,16.1283443 71.5882764,15.7593934 71.7541018,15.4012623 L72.7474073,13.1729508 L74.7356655,17.7026066 L70.7333418,17.7026066 Z" id="Shape" fill-rule="nonzero"></path>
                <g transform="translate(0.000000, 3.245902)" id="Path">
                    <path d="M1.71645818,5.31678689 C1.33264364,5.31678689 1.00977818,5.44770492 0.745665455,5.71008197 C0.477709091,5.97083607 0.345378182,6.28893443 0.345378182,6.66437705 L0.345378182,20.1424426 C0.345378182,20.5205902 0.481552727,20.8376066 0.757196364,21.0967377 C1.03064364,21.3607377 1.35021455,21.4911148 1.71590909,21.4911148 C2.09752727,21.4911148 2.41929455,21.3612787 2.68340727,21.0967377 C2.94806909,20.8376066 3.08534182,20.5211311 3.08534182,20.1424426 L3.08534182,6.66437705 C3.08534182,6.28947541 2.94806909,5.97137705 2.67352364,5.71008197 C2.40062545,5.44770492 2.07776,5.31678689 1.71645818,5.31678689 Z"></path>
                    <path d="M1.71536,3.30486885 C2.63783273,3.30486885 3.38294909,2.56859016 3.38294909,1.66081967 C3.38294909,0.755213115 2.63783273,0.0189344262 1.71536,0.0189344262 C0.795083636,0.0189344262 0.0488690909,0.755213115 0.0488690909,1.66081967 C0.0488690909,2.56859016 0.795083636,3.30486885 1.71536,3.30486885 Z"></path>
                </g>
                <path d="M133.41152,9.78855738 C132.864625,9.24865574 132.219993,8.82614754 131.480916,8.51508197 C130.744036,8.20563934 129.959935,8.04929508 129.133553,8.04929508 C128.302229,8.04929508 127.518676,8.20563934 126.782895,8.51508197 C126.048211,8.82560656 125.40248,9.24811475 124.857782,9.78855738 C124.309789,10.329541 123.873262,10.9614098 123.551495,11.6895738 C123.224236,12.4155738 123.067745,13.1870164 123.067745,14.0033607 L123.067745,19.2925574 C123.067745,20.1137705 123.224236,20.8819672 123.551495,21.5971475 C123.873262,22.3209836 124.309789,22.9474426 124.857782,23.4873443 C125.40248,24.0261639 126.048211,24.454082 126.782895,24.7721803 C127.518676,25.0891967 128.302778,25.2509508 129.133553,25.2509508 C129.960484,25.2509508 130.744585,25.0891967 131.480916,24.7721803 C132.219993,24.454082 132.864625,24.0261639 133.41152,23.4873443 C133.959513,22.9474426 134.393844,22.3209836 134.720004,21.5971475 C135.037378,20.8819672 135.19936,20.1137705 135.19936,19.2925574 L135.19936,14.0033607 C135.19936,13.1864754 135.037378,12.4150328 134.720004,11.6895738 C134.393844,10.9614098 133.959513,10.329541 133.41152,9.78855738 Z M132.470927,19.2925574 C132.470927,19.735082 132.380876,20.1581311 132.205167,20.557377 C132.029458,20.9577049 131.796644,21.3066393 131.497389,21.5971475 C131.199233,21.8930656 130.847265,22.1267705 130.436545,22.3009672 C130.02912,22.4681311 129.595887,22.5546885 129.133553,22.5546885 C128.686593,22.5546885 128.260498,22.4681311 127.854171,22.3009672 C127.441255,22.1267705 127.085444,21.8930656 126.782895,21.5971475 C126.477051,21.3066393 126.234902,20.9577049 126.064135,20.557377 C125.887327,20.1581311 125.800571,19.735082 125.800571,19.2925574 L125.800571,14.0033607 C125.800571,13.563541 125.887327,13.1410328 126.064135,12.7428689 C126.234902,12.341459 126.47156,11.9936066 126.769716,11.7020164 C127.071167,11.4071803 127.422036,11.1745574 127.826167,11.0014426 C128.230298,10.8304918 128.665727,10.7433934 129.133553,10.7433934 C129.583807,10.7433934 130.008804,10.8299508 130.415131,11.0014426 C130.817065,11.1745574 131.17672,11.4071803 131.480916,11.7020164 C131.790055,11.9936066 132.028909,12.341459 132.204618,12.7428689 C132.380327,13.1410328 132.470378,13.564082 132.470378,14.0033607 L132.470378,19.2925574 L132.470927,19.2925574 Z" id="Shape" fill-rule="nonzero"></path>
                <path d="M150.108276,11.7020164 C149.781018,10.9825082 149.343393,10.3506393 148.799793,9.81181967 C148.2518,9.27083607 147.604971,8.84616393 146.872484,8.52698361 C146.132309,8.20888525 145.351502,8.04929508 144.521825,8.04929508 C143.692698,8.04929508 142.908596,8.20888525 142.171167,8.52698361 C141.434287,8.84616393 140.789655,9.27083607 140.244956,9.81181967 C139.698062,10.3506393 139.268124,10.9825082 138.949651,11.7020164 C138.635571,12.4182787 138.476884,13.1864754 138.476884,14.0033607 L138.476884,23.3872623 C138.476884,23.7664918 138.608665,24.0835082 138.87772,24.3426393 C139.141284,24.6055574 139.461404,24.7359344 139.84412,24.7359344 C140.22464,24.7359344 140.545309,24.6060984 140.801735,24.3426393 C141.059258,24.0835082 141.184451,23.7670328 141.184451,23.3872623 L141.184451,14.0033607 C141.184451,13.563541 141.274502,13.1410328 141.450211,12.7428689 C141.623724,12.340377 141.862029,11.9936066 142.156891,11.7020164 C142.456145,11.4071803 142.80976,11.1734754 143.213342,11.0014426 C143.621865,10.8294098 144.054,10.7433934 144.521825,10.7433934 C144.986356,10.7433934 145.418491,10.8288689 145.82372,11.0014426 C146.237735,11.1734754 146.585309,11.4071803 146.898291,11.7020164 C147.204135,11.9936066 147.444087,12.340377 147.617051,12.7428689 C147.790564,13.1410328 147.880615,13.564082 147.880615,14.0033607 L147.880615,23.3872623 C147.880615,23.7664918 148.012396,24.0835082 148.286942,24.3426393 C148.559291,24.6055574 148.882156,24.7359344 149.245655,24.7359344 C149.626175,24.7359344 149.94904,24.6060984 150.201073,24.3426393 C150.457498,24.0835082 150.583789,23.7670328 150.583789,23.3872623 L150.583789,14.0033607 C150.584338,13.1864754 150.428945,12.4182787 150.108276,11.7020164 Z" id="Path"></path>
                <g transform="translate(116.407273, 3.245902)" id="Path">
                    <path d="M1.70657455,5.31678689 C1.32605455,5.31678689 1.00318909,5.44770492 0.73688,5.71008197 C0.474963636,5.97083607 0.339887273,6.28893443 0.339887273,6.66437705 L0.339887273,20.1424426 C0.339887273,20.5205902 0.474963636,20.8376066 0.752803636,21.0967377 C1.02295636,21.3607377 1.34142909,21.4911148 1.70602545,21.4911148 C2.08874182,21.4911148 2.41270545,21.3612787 2.67572,21.0967377 C2.94257818,20.8376066 3.07655636,20.5211311 3.07655636,20.1424426 L3.07655636,6.66437705 C3.07655636,6.28947541 2.93928364,5.97137705 2.66693455,5.71008197 C2.39623273,5.44770492 2.07446545,5.31678689 1.70657455,5.31678689 Z"></path>
                    <path d="M1.70657455,0.0189344262 C0.787396364,0.0189344262 0.0411818182,0.755213115 0.0411818182,1.66081967 C0.0411818182,2.56859016 0.787396364,3.30486885 1.70657455,3.30486885 C2.63124364,3.30486885 3.37636,2.56859016 3.37636,1.66081967 C3.37636,0.755213115 2.63124364,0.0189344262 1.70657455,0.0189344262 Z"></path>
                </g>
                <g transform="translate(80.167273, 0.000000)" id="Path">
                    <path d="M15.17248,24.6877869 C15.6639164,24.6877869 16.0669491,24.5168361 16.3640073,24.1835902 C16.6555745,23.860082 16.8027309,23.4884262 16.8027309,23.0816066 C16.8027309,22.9133607 16.7835127,22.7467377 16.7467236,22.5828197 C16.7038945,22.3945574 16.6083527,22.2171148 16.4743745,22.0650984 L13.2775673,18.1261967 L11.1948655,20.7499672 L13.9287891,24.0813443 C14.2791091,24.4838361 14.6964182,24.6877869 15.17248,24.6877869 Z"></path>
                    <path d="M16.4507636,10.6855082 C16.5946255,10.525918 16.6901673,10.3463115 16.7329964,10.1569672 C16.7692364,9.99196721 16.7890036,9.83454098 16.7890036,9.68252459 C16.7890036,9.25785246 16.6418473,8.88186885 16.3469855,8.56593443 C16.0477309,8.24134426 15.6490909,8.07796721 15.1587527,8.07796721 C14.9440582,8.07796721 14.7233236,8.12016393 14.5058836,8.20563934 C14.2686764,8.29760656 14.0649636,8.45395082 13.9095709,8.66655738 L11.1339164,12.0368852 L13.2067345,14.6487541 L16.4507636,10.6855082 Z"></path>
                    <path d="M3.27258182,5.78690164 C3.1106,5.56834426 2.90798545,5.40983607 2.67077818,5.31786885 C2.45004364,5.23455738 2.23095636,5.19127869 2.01790909,5.19127869 C1.52757091,5.19127869 1.12453818,5.35411475 0.817596364,5.67708197 C0.512850909,5.99301639 0.359654545,6.37008197 0.359654545,6.79583607 C0.359654545,7.16370492 0.481003636,7.49965574 0.715465455,7.78583607 L7.65103273,16.3285082 C6.89273818,17.3093115 6.16244727,18.1911148 5.45576727,19.0902295 C4.71174909,20.0380328 1.85428,23.9931639 1.05535273,25.0242787 C0.819243636,25.3147869 0.351967273,25.9098689 0.351967273,26.2945082 C0.351967273,26.7034918 0.506261818,27.0751475 0.806614545,27.4008197 C1.11245818,27.7324426 1.51658909,27.9028525 2.00802545,27.9028525 C2.40886182,27.9028525 2.75863273,27.7995246 3.08589091,27.4624918 L9.71451636,18.9630984 L11.7873345,16.3490656 L3.27258182,5.78690164 Z"></path>
                    <path d="M33.58844,22.0650984 L30.3905345,18.1261967 L28.3089309,20.7499672 L31.0428545,24.0813443 C31.3926255,24.4838361 31.8104836,24.6877869 32.2870945,24.6877869 C32.7785309,24.6877869 33.1804655,24.5168361 33.4786218,24.1835902 C33.7690909,23.860082 33.9162473,23.4884262 33.9162473,23.0816066 C33.9162473,22.9133607 33.8981273,22.7467377 33.8613382,22.5828197 C33.8168618,22.3945574 33.7224182,22.2171148 33.58844,22.0650984 Z"></path>
                    <path d="M32.2662291,8.08608197 C32.0504364,8.08608197 31.8297018,8.12827869 31.6122618,8.2137541 C31.3750545,8.30572131 31.1713418,8.46206557 31.0159491,8.67467213 L28.2479818,12.0368852 L30.3197018,14.6487541 L33.5571418,10.693623 C33.7021018,10.5340328 33.7965455,10.3544262 33.8404727,10.165082 C33.8767127,10.000082 33.8953818,9.84265574 33.8953818,9.69063934 C33.8953818,9.26596721 33.7482255,8.88998361 33.4544618,8.57404918 C33.1552073,8.25 32.75492,8.08608197 32.2662291,8.08608197 Z"></path>
                    <path d="M26.8274836,18.9630984 L28.9014,16.3490656 L15.7693418,0.881262295 C15.60736,0.662704918 15.4058436,0.504196721 15.1675382,0.411147541 C14.9479018,0.327836066 14.7277164,0.285639344 14.5146691,0.285639344 C14.0243309,0.285639344 13.6223964,0.44847541 13.3143564,0.770360656 C13.0096109,1.08629508 12.8564145,1.46336066 12.8564145,1.89019672 C12.8564145,2.25698361 12.9788618,2.59293443 13.2122255,2.88019672 L24.7645491,16.3285082 C24.0062545,17.3093115 23.2759636,18.1911148 22.5692836,19.0902295 C21.8252655,20.0380328 14.3609236,28.9031311 13.5619964,29.9342459 C13.3269855,30.2247541 12.8586109,30.8187541 12.8586109,31.2044754 C12.8586109,31.613459 13.0118073,31.9851148 13.3132582,32.3107869 C13.6191018,32.6424098 14.0232327,32.8117377 14.5152182,32.8117377 C14.9155055,32.8117377 15.2669236,32.7273443 15.5930836,32.371918 L26.8274836,18.9630984 Z"></path>
                </g>
            </g>
        </g>
    </g>
</svg>