<?xml version="1.0" encoding="UTF-8"?>
<svg width="36px" height="35px" viewBox="0 0 36 35" version="1.1" xmlns="http://www.w3.org/2000/svg" xmlns:xlink="http://www.w3.org/1999/xlink">
    <!-- Generator: Sketch 52.5 (67469) - http://www.bohemiancoding.com/sketch -->
    <title>inx-shad</title>
    <desc>Created with Sketch.</desc>
    <defs>
        <filter x="-11.8%" y="-12.1%" width="123.5%" height="124.2%" filterUnits="objectBoundingBox" id="filter-1">
            <feOffset dx="0" dy="1" in="SourceAlpha" result="shadowOffsetOuter1"></feOffset>
            <feGaussianBlur stdDeviation="0.5" in="shadowOffsetOuter1" result="shadowBlurOuter1"></feGaussianBlur>
            <feColorMatrix values="0 0 0 0 0   0 0 0 0 0   0 0 0 0 0  0 0 0 0.404693161 0" type="matrix" in="shadowBlurOuter1" result="shadowMatrixOuter1"></feColorMatrix>
            <feMerge>
                <feMergeNode in="shadowMatrixOuter1"></feMergeNode>
                <feMergeNode in="SourceGraphic"></feMergeNode>
            </feMerge>
        </filter>
    </defs>
    <g id="Page-1" stroke="none" stroke-width="1" fill="none" fill-rule="evenodd">
        <g id="inx-shad" transform="translate(1.000000, 0.000000)" fill="#E54A4A">
            <g filter="url(#filter-1)" id="Path">
                <path d="M15.17248,24.6877869 C15.6639164,24.6877869 16.0669491,24.5168361 16.3640073,24.1835902 C16.6555745,23.860082 16.8027309,23.4884262 16.8027309,23.0816066 C16.8027309,22.9133607 16.7835127,22.7467377 16.7467236,22.5828197 C16.7038945,22.3945574 16.6083527,22.2171148 16.4743745,22.0650984 L13.2775673,18.1261967 L11.1948655,20.7499672 L13.9287891,24.0813443 C14.2791091,24.4838361 14.6964182,24.6877869 15.17248,24.6877869 Z"></path>
                <path d="M16.4507636,10.6855082 C16.5946255,10.525918 16.6901673,10.3463115 16.7329964,10.1569672 C16.7692364,9.99196721 16.7890036,9.83454098 16.7890036,9.68252459 C16.7890036,9.25785246 16.6418473,8.88186885 16.3469855,8.56593443 C16.0477309,8.24134426 15.6490909,8.07796721 15.1587527,8.07796721 C14.9440582,8.07796721 14.7233236,8.12016393 14.5058836,8.20563934 C14.2686764,8.29760656 14.0649636,8.45395082 13.9095709,8.66655738 L11.1339164,12.0368852 L13.2067345,14.6487541 L16.4507636,10.6855082 Z"></path>
                <path d="M3.27258182,5.78690164 C3.1106,5.56834426 2.90798545,5.40983607 2.67077818,5.31786885 C2.45004364,5.23455738 2.23095636,5.19127869 2.01790909,5.19127869 C1.52757091,5.19127869 1.12453818,5.35411475 0.817596364,5.67708197 C0.512850909,5.99301639 0.359654545,6.37008197 0.359654545,6.79583607 C0.359654545,7.16370492 0.481003636,7.49965574 0.715465455,7.78583607 L7.65103273,16.3285082 C6.89273818,17.3093115 6.16244727,18.1911148 5.45576727,19.0902295 C4.71174909,20.0380328 1.85428,23.9931639 1.05535273,25.0242787 C0.819243636,25.3147869 0.351967273,25.9098689 0.351967273,26.2945082 C0.351967273,26.7034918 0.506261818,27.0751475 0.806614545,27.4008197 C1.11245818,27.7324426 1.51658909,27.9028525 2.00802545,27.9028525 C2.40886182,27.9028525 2.75863273,27.7995246 3.08589091,27.4624918 L9.71451636,18.9630984 L11.7873345,16.3490656 L3.27258182,5.78690164 Z"></path>
                <path d="M33.58844,22.0650984 L30.3905345,18.1261967 L28.3089309,20.7499672 L31.0428545,24.0813443 C31.3926255,24.4838361 31.8104836,24.6877869 32.2870945,24.6877869 C32.7785309,24.6877869 33.1804655,24.5168361 33.4786218,24.1835902 C33.7690909,23.860082 33.9162473,23.4884262 33.9162473,23.0816066 C33.9162473,22.9133607 33.8981273,22.7467377 33.8613382,22.5828197 C33.8168618,22.3945574 33.7224182,22.2171148 33.58844,22.0650984 Z"></path>
                <path d="M32.2662291,8.08608197 C32.0504364,8.08608197 31.8297018,8.12827869 31.6122618,8.2137541 C31.3750545,8.30572131 31.1713418,8.46206557 31.0159491,8.67467213 L28.2479818,12.0368852 L30.3197018,14.6487541 L33.5571418,10.693623 C33.7021018,10.5340328 33.7965455,10.3544262 33.8404727,10.165082 C33.8767127,10.000082 33.8953818,9.84265574 33.8953818,9.69063934 C33.8953818,9.26596721 33.7482255,8.88998361 33.4544618,8.57404918 C33.1552073,8.25 32.75492,8.08608197 32.2662291,8.08608197 Z"></path>
                <path d="M26.8274836,18.9630984 L28.9014,16.3490656 L15.7693418,0.881262295 C15.60736,0.662704918 15.4058436,0.504196721 15.1675382,0.411147541 C14.9479018,0.327836066 14.7277164,0.285639344 14.5146691,0.285639344 C14.0243309,0.285639344 13.6223964,0.44847541 13.3143564,0.770360656 C13.0096109,1.08629508 12.8564145,1.46336066 12.8564145,1.89019672 C12.8564145,2.25698361 12.9788618,2.59293443 13.2122255,2.88019672 L24.7645491,16.3285082 C24.0062545,17.3093115 23.2759636,18.1911148 22.5692836,19.0902295 C21.8252655,20.0380328 14.3609236,28.9031311 13.5619964,29.9342459 C13.3269855,30.2247541 12.8586109,30.8187541 12.8586109,31.2044754 C12.8586109,31.613459 13.0118073,31.9851148 13.3132582,32.3107869 C13.6191018,32.6424098 14.0232327,32.8117377 14.5152182,32.8117377 C14.9155055,32.8117377 15.2669236,32.7273443 15.5930836,32.371918 L26.8274836,18.9630984 Z"></path>
            </g>
        </g>
    </g>
</svg>